<?xml version="1.0" standalone="no"?><!DOCTYPE svg PUBLIC "-//W3C//DTD SVG 1.1//EN" "http://www.w3.org/Graphics/SVG/1.1/DTD/svg11.dtd"><svg class="icon" width="16px" height="16.00px" viewBox="0 0 1024 1024" version="1.1" xmlns="http://www.w3.org/2000/svg"><path fill="#707070" d="M241.06 947.68H511c44.38 0 80.48-36.1 80.48-80.48 0-15.65-4.49-30.28-12.25-42.65 35.43-8.42 61.87-40.33 61.87-78.31 0-15.47-4.39-29.93-11.98-42.21 36.43-7.68 63.85-40.07 63.85-78.75 0-14.75-3.99-28.58-10.94-40.48H853c44.38 0 80.48-36.1 80.48-80.48s-36.1-80.48-80.48-80.48H469.41l83.5-83.5c15.2-15.2 23.57-35.41 23.57-56.91s-8.37-41.71-23.57-56.91c-31.38-31.38-82.44-31.38-113.81 0l-20.84 20.84c-47.33 47.33-110.26 73.4-177.2 73.4-109.21 0-198.05 88.85-198.05 198.05v230.81c0 109.21 88.85 198.06 198.05 198.06zM83.01 518.82c0-87.15 70.9-158.05 158.05-158.05 38.35 0 75.77-7.44 111.21-22.12s67.15-35.87 94.28-62.99l20.84-20.84c7.65-7.65 17.81-11.86 28.62-11.86 10.81 0 20.98 4.21 28.62 11.86s11.86 17.81 11.86 28.62c0 10.81-4.21 20.98-11.86 28.62L406.99 429.7a20.016 20.016 0 0 0-4.34 21.8 20.016 20.016 0 0 0 18.48 12.35H853c22.32 0 40.48 18.16 40.48 40.48 0 22.32-18.16 40.48-40.48 40.48H612.5c-1.4 0-2.76 0.15-4.08 0.42H470.66c-11.05 0-20 8.95-20 20s8.95 20 20 20h147.61c19.6 2.81 34.71 19.7 34.71 40.06 0 22.32-18.16 40.48-40.48 40.48H415.02c-11.05 0-20 8.95-20 20s8.95 20 20 20h145.6c22.32 0 40.48 18.16 40.48 40.48 0 22.32-18.16 40.48-40.48 40.48h-1.49a19.89 19.89 0 0 0-3.56-0.33H385.74c-11.05 0-20 8.95-20 20s8.95 20 20 20h121.71c1.16 0.21 2.34 0.33 3.56 0.33 22.32 0 40.48 18.16 40.48 40.48 0 22.32-18.16 40.48-40.48 40.48H241.06c-87.15 0-158.05-70.9-158.05-158.05V518.82zM978.12 175.02l-83.38-96.28c-7.23-8.35-19.86-9.26-28.21-2.03-8.35 7.23-9.26 19.86-2.03 28.21l54.72 63.18H626.49c-11.05 0-20 8.95-20 20s8.95 20 20 20h292.73l-54.72 63.2c-7.23 8.35-6.32 20.98 2.03 28.21 3.78 3.28 8.44 4.88 13.08 4.88 5.6 0 11.17-2.34 15.13-6.91l83.38-96.28c6.51-7.51 6.51-18.67 0-26.18z" /></svg>