<?xml version="1.0" standalone="no"?><!DOCTYPE svg PUBLIC "-//W3C//DTD SVG 1.1//EN" "http://www.w3.org/Graphics/SVG/1.1/DTD/svg11.dtd"><svg class="icon" width="16px" height="16.00px" viewBox="0 0 1024 1024" version="1.1" xmlns="http://www.w3.org/2000/svg"><path fill="#5b6b73" d="M819.2 12.8c101.7856 0 186.368 73.216 191.744 167.168l0.256 9.472v645.12c0 95.3344-81.3056 171.5712-181.8624 176.384L819.2 1011.2H307.2c-101.7856 0-186.368-73.216-191.744-167.168L115.2 834.56v-46.08a38.4 38.4 0 0 1 76.4416-5.2224l0.3584 5.2224v46.08c0 51.8144 46.3872 95.8464 106.8544 99.584L307.2 934.4h512c61.6448 0 110.7456-41.7792 114.8928-92.8256l0.3072-7.0144V189.44c0-51.8144-46.3872-95.8464-106.8544-99.584L819.2 89.6H307.2c-61.6448 0-110.7456 41.7792-114.8928 92.8256L192 189.44v46.08a38.4 38.4 0 0 1-76.4416 5.2224L115.2 235.52v-46.08C115.2 94.1056 196.5056 17.8688 297.0624 13.056L307.2 12.8h512z"  /><path fill="#5b6b73" d="M153.6 422.4a38.4 38.4 0 0 1 38.0416 33.1776L192 460.8v102.4a38.4 38.4 0 0 1-76.4416 5.2224L115.2 563.2V460.8A38.4 38.4 0 0 1 153.6 422.4zM230.4 320a38.4 38.4 0 0 1 5.2224 76.4416L230.4 396.8h-153.6a38.4 38.4 0 0 1-5.2224-76.4416L76.8 320h153.6zM793.6 217.6a38.4 38.4 0 0 1 5.2224 76.4416l-5.2224 0.3584h-409.6a38.4 38.4 0 0 1-5.2224-76.4416L384 217.6h409.6zM793.6 473.6a38.4 38.4 0 0 1 5.2224 76.4416l-5.2224 0.3584h-409.6a38.4 38.4 0 0 1-5.2224-76.4416L384 473.6h409.6zM230.4 627.2a38.4 38.4 0 0 1 5.2224 76.4416l-5.2224 0.3584h-153.6a38.4 38.4 0 0 1-5.2224-76.4416l5.2224-0.3584h153.6zM793.6 729.6a38.4 38.4 0 0 1 5.2224 76.4416l-5.2224 0.3584h-409.6a38.4 38.4 0 0 1-5.2224-76.4416l5.2224-0.3584h409.6z"  /></svg>